<svg t="1727060202743" class="icon" viewBox="0 0 1024 1024" version="1.1" xmlns="http://www.w3.org/2000/svg" p-id="4318" width="200" height="200"><path d="M855.04 906.24H168.96c-30.72 0-56.32-25.6-56.32-56.32V215.04c0-30.72 25.6-56.32 56.32-56.32h680.96c30.72 0 56.32 25.6 56.32 56.32v640c0 30.72-25.6 51.2-51.2 51.2zM184.32 839.68h660.48V501.76H184.32v337.92z m0-404.48h660.48V225.28H184.32v209.92z" p-id="4319" fill="#591bb7"></path><path d="M727.04 312.32c-20.48 0-30.72-15.36-30.72-30.72V107.52c0-20.48 15.36-30.72 30.72-30.72s30.72 15.36 30.72 30.72v168.96c0 20.48-15.36 35.84-30.72 35.84zM296.96 312.32c-20.48 0-30.72-15.36-30.72-30.72V107.52c0-20.48 15.36-30.72 30.72-30.72s30.72 15.36 30.72 30.72v168.96c5.12 20.48-10.24 35.84-30.72 35.84z" p-id="4320" fill="#591bb7"></path></svg>