<?xml version="1.0" standalone="no"?>
<!DOCTYPE svg PUBLIC "-//W3C//DTD SVG 1.1//EN" "http://www.w3.org/Graphics/SVG/1.1/DTD/svg11.dtd">
<svg t="1726739029599" class="icon" viewBox="0 0 1024 1024" version="1.1" xmlns="http://www.w3.org/2000/svg" p-id="6475" xmlns:xlink="http://www.w3.org/1999/xlink" width="200" height="200">
    <path d="M757.205333 473.173333c5.333333 0 10.453333 2.090667 14.250667 5.717334a19.029333 19.029333 0 0 1 5.888 13.738666v58.154667h141.184c11.093333 0 20.138667 8.704 20.138667 19.413333v232.704a19.797333 19.797333 0 0 1-20.138667 19.413334h-141.184v96.981333a19.754667 19.754667 0 0 1-20.138667 19.370667H716.8a20.565333 20.565333 0 0 1-14.250667-5.674667 19.029333 19.029333 0 0 1-5.888-13.696v-96.981333h-141.141333a20.565333 20.565333 0 0 1-14.250667-5.674667 19.029333 19.029333 0 0 1-5.930666-13.738667v-232.704c0-5.12 2.133333-10.112 5.930666-13.738666a20.565333 20.565333 0 0 1 14.250667-5.674667h141.141333v-58.154667c0-5.162667 2.133333-10.112 5.888-13.738666a20.565333 20.565333 0 0 1 14.250667-5.674667h40.362667zM192.597333 628.394667c22.272 0 40.32 17.365333 40.32 38.826666v38.741334c0 40.618667 32.512 74.368 74.624 77.397333l6.058667 0.213333h80.64c21.930667 0.469333 39.424 17.706667 39.424 38.784 0 21.077333-17.493333 38.314667-39.424 38.784H313.6c-89.088 0-161.28-69.461333-161.28-155.178666v-38.741334c0-21.461333 18.005333-38.826667 40.277333-38.826666z m504.106667 0h-80.64v116.394666h80.64v-116.394666z m161.28 0h-80.64v116.394666h80.64v-116.394666zM320.170667 85.333333c8.234667 0 15.658667 4.778667 18.773333 12.202667H338.773333l161.322667 387.84c2.517333 5.973333 1.706667 12.8-2.005333 18.090667a20.394667 20.394667 0 0 1-16.725334 8.533333h-43.52a20.181333 20.181333 0 0 1-18.688-12.202667L375.850667 395.648H210.901333l-43.264 104.149333A20.181333 20.181333 0 0 1 148.906667 512H105.514667a20.394667 20.394667 0 0 1-16.725334-8.533333 18.773333 18.773333 0 0 1-2.005333-18.090667l161.28-387.84A20.181333 20.181333 0 0 1 266.88 85.333333h53.290667zM716.8 162.901333c42.794667 0 83.84 16.341333 114.090667 45.44a152.234667 152.234667 0 0 1 47.232 109.738667v38.741333c-0.469333 21.077333-18.389333 37.930667-40.32 37.930667s-39.808-16.853333-40.32-37.930667v-38.741333c0-20.608-8.490667-40.32-23.637334-54.869333a82.304 82.304 0 0 0-57.045333-22.741334h-80.64c-21.888-0.469333-39.424-17.706667-39.424-38.784 0-21.077333 17.493333-38.314667 39.424-38.784h80.64z m-423.424 34.304L243.2 318.037333h100.48L293.418667 197.205333z" fill="#515151" p-id="6476">

</path>
</svg>