<svg t="1727072905907" class="icon" viewBox="0 0 1879 1024" version="1.1" xmlns="http://www.w3.org/2000/svg" p-id="5996" width="200" height="200"><path d="M1280.444 670.335c-83.755-86.122-176.832-108.467-176.832-108.467s159.223-108.467 108.763-315.339C1149.78 39.658 940.097 39.658 940.097 39.658s-196.957 0.148-265.026 185.119C607 409.896 748.17 538.34 748.17 538.34l25.748 21.309s-148.125 34.33-225.073 172.393c-52.68 91.301-52.68 172.837-52.68 172.837v77.835h68.958s-20.125-141.317 56.083-237.946c76.208-96.63 142.798-125.337 233.064-130.96 90.265-5.475 182.307 0.888 182.307 0.888s118.086 3.551 207.168 110.835c89.23 107.283 70.585 257.183 70.585 257.183h68.957v-56.527c-0.148 0.148 3.551-149.752-102.844-255.852z m-340.79-130.811c-118.086 0-213.827-95.741-213.827-213.827s95.74-213.826 213.826-213.826 213.827 95.74 213.827 213.826-95.741 213.827-213.827 213.827z" fill="#4f4f4f" p-id="5997"></path></svg>